<mxfile host="app.diagrams.net" modified="2021-02-03T14:04:13.503Z" agent="5.0 (Macintosh; Intel Mac OS X 11_0_1) AppleWebKit/537.36 (KHTML, like Gecko) Chrome/88.0.4324.96 Safari/537.36" etag="hLtvtkEir67OKjD21C3F" version="14.2.9" type="github">
  <diagram id="9EJ2Wms6L5kNZb4-bCyL" name="Page-1">
    <mxGraphModel dx="880" dy="621" grid="0" gridSize="10" guides="1" tooltips="1" connect="1" arrows="1" fold="1" page="1" pageScale="1" pageWidth="827" pageHeight="1169" math="0" shadow="0">
      <root>
        <mxCell id="0" />
        <mxCell id="1" parent="0" />
        <mxCell id="2DD6mY1p6OVQSlKND4L3-9" value="二方库&lt;br&gt;&lt;br&gt;&lt;br&gt;&lt;br&gt;&lt;br&gt;&lt;br&gt;&lt;br&gt;" style="rounded=0;whiteSpace=wrap;html=1;" vertex="1" parent="1">
          <mxGeometry x="390.5" y="704" width="203" height="127" as="geometry" />
        </mxCell>
        <mxCell id="04IPm05DKjzAKgzX7DtJ-5" style="edgeStyle=orthogonalEdgeStyle;rounded=0;orthogonalLoop=1;jettySize=auto;html=1;exitX=0.5;exitY=1;exitDx=0;exitDy=0;" parent="1" source="04IPm05DKjzAKgzX7DtJ-1" target="04IPm05DKjzAKgzX7DtJ-2" edge="1">
          <mxGeometry relative="1" as="geometry" />
        </mxCell>
        <mxCell id="04IPm05DKjzAKgzX7DtJ-1" value="Controller" style="rounded=0;whiteSpace=wrap;html=1;" parent="1" vertex="1">
          <mxGeometry x="50" y="100" width="120" height="60" as="geometry" />
        </mxCell>
        <mxCell id="04IPm05DKjzAKgzX7DtJ-6" style="edgeStyle=orthogonalEdgeStyle;rounded=0;orthogonalLoop=1;jettySize=auto;html=1;exitX=0.5;exitY=1;exitDx=0;exitDy=0;entryX=0.5;entryY=0;entryDx=0;entryDy=0;" parent="1" source="04IPm05DKjzAKgzX7DtJ-2" target="04IPm05DKjzAKgzX7DtJ-3" edge="1">
          <mxGeometry relative="1" as="geometry" />
        </mxCell>
        <mxCell id="04IPm05DKjzAKgzX7DtJ-2" value="Service" style="rounded=0;whiteSpace=wrap;html=1;" parent="1" vertex="1">
          <mxGeometry x="50" y="210" width="120" height="60" as="geometry" />
        </mxCell>
        <mxCell id="04IPm05DKjzAKgzX7DtJ-7" style="edgeStyle=orthogonalEdgeStyle;rounded=0;orthogonalLoop=1;jettySize=auto;html=1;exitX=0.5;exitY=1;exitDx=0;exitDy=0;" parent="1" source="04IPm05DKjzAKgzX7DtJ-3" target="04IPm05DKjzAKgzX7DtJ-4" edge="1">
          <mxGeometry relative="1" as="geometry" />
        </mxCell>
        <mxCell id="04IPm05DKjzAKgzX7DtJ-3" value="DAO" style="rounded=0;whiteSpace=wrap;html=1;" parent="1" vertex="1">
          <mxGeometry x="50" y="310" width="120" height="60" as="geometry" />
        </mxCell>
        <mxCell id="04IPm05DKjzAKgzX7DtJ-4" value="DB" style="shape=cylinder3;whiteSpace=wrap;html=1;boundedLbl=1;backgroundOutline=1;size=15;" parent="1" vertex="1">
          <mxGeometry x="80" y="420" width="60" height="80" as="geometry" />
        </mxCell>
        <mxCell id="04IPm05DKjzAKgzX7DtJ-16" style="edgeStyle=orthogonalEdgeStyle;rounded=0;orthogonalLoop=1;jettySize=auto;html=1;exitX=0.5;exitY=1;exitDx=0;exitDy=0;" parent="1" source="04IPm05DKjzAKgzX7DtJ-9" target="04IPm05DKjzAKgzX7DtJ-10" edge="1">
          <mxGeometry relative="1" as="geometry" />
        </mxCell>
        <mxCell id="04IPm05DKjzAKgzX7DtJ-9" value="Controller" style="rounded=0;whiteSpace=wrap;html=1;" parent="1" vertex="1">
          <mxGeometry x="510" y="80" width="120" height="60" as="geometry" />
        </mxCell>
        <mxCell id="04IPm05DKjzAKgzX7DtJ-17" style="edgeStyle=orthogonalEdgeStyle;rounded=0;orthogonalLoop=1;jettySize=auto;html=1;exitX=0.5;exitY=1;exitDx=0;exitDy=0;entryX=0.5;entryY=0;entryDx=0;entryDy=0;" parent="1" source="04IPm05DKjzAKgzX7DtJ-10" target="04IPm05DKjzAKgzX7DtJ-12" edge="1">
          <mxGeometry relative="1" as="geometry" />
        </mxCell>
        <mxCell id="04IPm05DKjzAKgzX7DtJ-10" value="Service&lt;br&gt;&lt;br&gt;&lt;br&gt;&lt;br&gt;" style="rounded=0;whiteSpace=wrap;html=1;" parent="1" vertex="1">
          <mxGeometry x="470" y="180" width="200" height="140" as="geometry" />
        </mxCell>
        <mxCell id="04IPm05DKjzAKgzX7DtJ-11" value="domain" style="rounded=0;whiteSpace=wrap;html=1;" parent="1" vertex="1">
          <mxGeometry x="510" y="250" width="120" height="60" as="geometry" />
        </mxCell>
        <mxCell id="04IPm05DKjzAKgzX7DtJ-18" style="edgeStyle=orthogonalEdgeStyle;rounded=0;orthogonalLoop=1;jettySize=auto;html=1;exitX=0.5;exitY=1;exitDx=0;exitDy=0;entryX=0.5;entryY=0;entryDx=0;entryDy=0;entryPerimeter=0;" parent="1" source="04IPm05DKjzAKgzX7DtJ-12" target="04IPm05DKjzAKgzX7DtJ-13" edge="1">
          <mxGeometry relative="1" as="geometry" />
        </mxCell>
        <mxCell id="04IPm05DKjzAKgzX7DtJ-12" value="DAO" style="rounded=0;whiteSpace=wrap;html=1;" parent="1" vertex="1">
          <mxGeometry x="510" y="350" width="120" height="60" as="geometry" />
        </mxCell>
        <mxCell id="04IPm05DKjzAKgzX7DtJ-13" value="DB" style="shape=cylinder3;whiteSpace=wrap;html=1;boundedLbl=1;backgroundOutline=1;size=15;" parent="1" vertex="1">
          <mxGeometry x="540" y="440" width="60" height="80" as="geometry" />
        </mxCell>
        <mxCell id="04IPm05DKjzAKgzX7DtJ-14" value="" style="shape=flexArrow;endArrow=classic;html=1;width=28;endSize=9;endWidth=28;" parent="1" edge="1">
          <mxGeometry width="50" height="50" relative="1" as="geometry">
            <mxPoint x="240" y="290" as="sourcePoint" />
            <mxPoint x="400" y="290" as="targetPoint" />
          </mxGeometry>
        </mxCell>
        <mxCell id="04IPm05DKjzAKgzX7DtJ-19" style="edgeStyle=orthogonalEdgeStyle;rounded=0;orthogonalLoop=1;jettySize=auto;html=1;exitX=0.5;exitY=1;exitDx=0;exitDy=0;" parent="1" source="04IPm05DKjzAKgzX7DtJ-20" target="04IPm05DKjzAKgzX7DtJ-22" edge="1">
          <mxGeometry relative="1" as="geometry" />
        </mxCell>
        <mxCell id="04IPm05DKjzAKgzX7DtJ-20" value="Controller" style="rounded=0;whiteSpace=wrap;html=1;" parent="1" vertex="1">
          <mxGeometry x="100" y="585" width="120" height="60" as="geometry" />
        </mxCell>
        <mxCell id="04IPm05DKjzAKgzX7DtJ-21" style="edgeStyle=orthogonalEdgeStyle;rounded=0;orthogonalLoop=1;jettySize=auto;html=1;exitX=0.5;exitY=1;exitDx=0;exitDy=0;entryX=0.5;entryY=0;entryDx=0;entryDy=0;" parent="1" source="04IPm05DKjzAKgzX7DtJ-22" target="04IPm05DKjzAKgzX7DtJ-25" edge="1">
          <mxGeometry relative="1" as="geometry">
            <mxPoint x="160" y="900" as="sourcePoint" />
          </mxGeometry>
        </mxCell>
        <mxCell id="04IPm05DKjzAKgzX7DtJ-22" value="Service&lt;br&gt;&lt;br&gt;&lt;br&gt;&lt;br&gt;&lt;br&gt;&lt;br&gt;&lt;br&gt;&lt;br&gt;&lt;br&gt;&lt;br&gt;&lt;br&gt;&lt;br&gt;" style="rounded=0;whiteSpace=wrap;html=1;" parent="1" vertex="1">
          <mxGeometry x="30" y="680" width="260" height="210" as="geometry" />
        </mxCell>
        <mxCell id="04IPm05DKjzAKgzX7DtJ-23" value="domain" style="rounded=0;whiteSpace=wrap;html=1;" parent="1" vertex="1">
          <mxGeometry x="100" y="820" width="120" height="60" as="geometry" />
        </mxCell>
        <mxCell id="04IPm05DKjzAKgzX7DtJ-24" style="edgeStyle=orthogonalEdgeStyle;rounded=0;orthogonalLoop=1;jettySize=auto;html=1;exitX=0.5;exitY=1;exitDx=0;exitDy=0;entryX=0.5;entryY=0;entryDx=0;entryDy=0;entryPerimeter=0;" parent="1" source="04IPm05DKjzAKgzX7DtJ-25" target="04IPm05DKjzAKgzX7DtJ-26" edge="1">
          <mxGeometry relative="1" as="geometry" />
        </mxCell>
        <mxCell id="04IPm05DKjzAKgzX7DtJ-25" value="DAO" style="rounded=0;whiteSpace=wrap;html=1;" parent="1" vertex="1">
          <mxGeometry x="100" y="930" width="120" height="60" as="geometry" />
        </mxCell>
        <mxCell id="04IPm05DKjzAKgzX7DtJ-26" value="DB" style="shape=cylinder3;whiteSpace=wrap;html=1;boundedLbl=1;backgroundOutline=1;size=15;" parent="1" vertex="1">
          <mxGeometry x="130" y="1020" width="60" height="80" as="geometry" />
        </mxCell>
        <mxCell id="04IPm05DKjzAKgzX7DtJ-27" value="AMQP" style="shape=cylinder3;whiteSpace=wrap;html=1;boundedLbl=1;backgroundOutline=1;size=15;" parent="1" vertex="1">
          <mxGeometry x="84" y="740" width="46" height="55" as="geometry" />
        </mxCell>
        <mxCell id="04IPm05DKjzAKgzX7DtJ-30" value="Rest过磅微服务" style="rounded=0;whiteSpace=wrap;html=1;" parent="1" vertex="1">
          <mxGeometry x="156" y="767.5" width="110" height="35" as="geometry" />
        </mxCell>
        <mxCell id="04IPm05DKjzAKgzX7DtJ-32" value="Adapter&lt;br&gt;&lt;br&gt;&lt;br&gt;&lt;br&gt;" style="rounded=0;whiteSpace=wrap;html=1;" parent="1" vertex="1">
          <mxGeometry x="628" y="589.5" width="285" height="76" as="geometry" />
        </mxCell>
        <mxCell id="04IPm05DKjzAKgzX7DtJ-35" value="domain&lt;br&gt;&lt;br&gt;&lt;br&gt;&lt;br&gt;&lt;br&gt;&lt;br&gt;&lt;br&gt;&lt;br&gt;&lt;br&gt;" style="rounded=0;whiteSpace=wrap;html=1;" parent="1" vertex="1">
          <mxGeometry x="628" y="873" width="288" height="134" as="geometry" />
        </mxCell>
        <mxCell id="2DD6mY1p6OVQSlKND4L3-22" style="edgeStyle=orthogonalEdgeStyle;rounded=0;orthogonalLoop=1;jettySize=auto;html=1;exitX=0.25;exitY=0;exitDx=0;exitDy=0;" edge="1" parent="1" source="04IPm05DKjzAKgzX7DtJ-37" target="2DD6mY1p6OVQSlKND4L3-16">
          <mxGeometry relative="1" as="geometry" />
        </mxCell>
        <mxCell id="2DD6mY1p6OVQSlKND4L3-23" style="edgeStyle=orthogonalEdgeStyle;rounded=0;orthogonalLoop=1;jettySize=auto;html=1;exitX=0.75;exitY=0;exitDx=0;exitDy=0;entryX=0.5;entryY=1;entryDx=0;entryDy=0;" edge="1" parent="1" source="04IPm05DKjzAKgzX7DtJ-37" target="2DD6mY1p6OVQSlKND4L3-15">
          <mxGeometry relative="1" as="geometry" />
        </mxCell>
        <mxCell id="2DD6mY1p6OVQSlKND4L3-26" style="edgeStyle=orthogonalEdgeStyle;rounded=0;orthogonalLoop=1;jettySize=auto;html=1;exitX=0.25;exitY=1;exitDx=0;exitDy=0;" edge="1" parent="1" source="04IPm05DKjzAKgzX7DtJ-37" target="04IPm05DKjzAKgzX7DtJ-38">
          <mxGeometry relative="1" as="geometry" />
        </mxCell>
        <mxCell id="2DD6mY1p6OVQSlKND4L3-27" style="edgeStyle=orthogonalEdgeStyle;rounded=0;orthogonalLoop=1;jettySize=auto;html=1;exitX=0.75;exitY=1;exitDx=0;exitDy=0;entryX=0.5;entryY=0;entryDx=0;entryDy=0;" edge="1" parent="1" source="04IPm05DKjzAKgzX7DtJ-37" target="04IPm05DKjzAKgzX7DtJ-40">
          <mxGeometry relative="1" as="geometry" />
        </mxCell>
        <mxCell id="04IPm05DKjzAKgzX7DtJ-37" value="&lt;span style=&quot;color: rgb(77 , 77 , 77) ; background-color: rgb(255 , 255 , 255)&quot;&gt;&lt;font style=&quot;font-size: 12px&quot;&gt;Infrastructure&lt;/font&gt;&lt;/span&gt;" style="rounded=0;whiteSpace=wrap;html=1;" parent="1" vertex="1">
          <mxGeometry x="623" y="1040" width="290" height="60" as="geometry" />
        </mxCell>
        <mxCell id="04IPm05DKjzAKgzX7DtJ-38" value="DB" style="shape=cylinder3;whiteSpace=wrap;html=1;boundedLbl=1;backgroundOutline=1;size=15;" parent="1" vertex="1">
          <mxGeometry x="665" y="1127" width="60" height="80" as="geometry" />
        </mxCell>
        <mxCell id="2DD6mY1p6OVQSlKND4L3-3" style="edgeStyle=orthogonalEdgeStyle;rounded=0;orthogonalLoop=1;jettySize=auto;html=1;exitX=0;exitY=0.5;exitDx=0;exitDy=0;exitPerimeter=0;entryX=1;entryY=0.5;entryDx=0;entryDy=0;" edge="1" parent="1" source="04IPm05DKjzAKgzX7DtJ-39" target="2DD6mY1p6OVQSlKND4L3-2">
          <mxGeometry relative="1" as="geometry" />
        </mxCell>
        <mxCell id="04IPm05DKjzAKgzX7DtJ-39" value="AMQP" style="shape=cylinder3;whiteSpace=wrap;html=1;boundedLbl=1;backgroundOutline=1;size=15;" parent="1" vertex="1">
          <mxGeometry x="948" y="608.5" width="46" height="55" as="geometry" />
        </mxCell>
        <mxCell id="04IPm05DKjzAKgzX7DtJ-40" value="云端iot服务" style="rounded=0;whiteSpace=wrap;html=1;" parent="1" vertex="1">
          <mxGeometry x="802.5" y="1141" width="76" height="30" as="geometry" />
        </mxCell>
        <mxCell id="04IPm05DKjzAKgzX7DtJ-43" value="App&lt;br&gt;&lt;br&gt;&lt;br&gt;&lt;br&gt;&lt;br&gt;&lt;br&gt;&lt;br&gt;&lt;br&gt;" style="rounded=0;whiteSpace=wrap;html=1;" parent="1" vertex="1">
          <mxGeometry x="628" y="693.5" width="284" height="140" as="geometry" />
        </mxCell>
        <mxCell id="2DD6mY1p6OVQSlKND4L3-10" style="edgeStyle=orthogonalEdgeStyle;rounded=0;orthogonalLoop=1;jettySize=auto;html=1;exitX=0.5;exitY=1;exitDx=0;exitDy=0;entryX=0.75;entryY=0;entryDx=0;entryDy=0;" edge="1" parent="1" source="2DD6mY1p6OVQSlKND4L3-2" target="2DD6mY1p6OVQSlKND4L3-7">
          <mxGeometry relative="1" as="geometry" />
        </mxCell>
        <mxCell id="2DD6mY1p6OVQSlKND4L3-2" value="MessageListener" style="rounded=0;whiteSpace=wrap;html=1;" vertex="1" parent="1">
          <mxGeometry x="777" y="620.5" width="120" height="31" as="geometry" />
        </mxCell>
        <mxCell id="2DD6mY1p6OVQSlKND4L3-11" style="edgeStyle=orthogonalEdgeStyle;rounded=0;orthogonalLoop=1;jettySize=auto;html=1;exitX=0.5;exitY=1;exitDx=0;exitDy=0;entryX=0.25;entryY=0;entryDx=0;entryDy=0;" edge="1" parent="1" source="2DD6mY1p6OVQSlKND4L3-4" target="2DD6mY1p6OVQSlKND4L3-7">
          <mxGeometry relative="1" as="geometry" />
        </mxCell>
        <mxCell id="2DD6mY1p6OVQSlKND4L3-4" value="RestController" style="rounded=0;whiteSpace=wrap;html=1;" vertex="1" parent="1">
          <mxGeometry x="643" y="620.5" width="120" height="31" as="geometry" />
        </mxCell>
        <mxCell id="2DD6mY1p6OVQSlKND4L3-6" style="edgeStyle=orthogonalEdgeStyle;rounded=0;orthogonalLoop=1;jettySize=auto;html=1;exitX=0.5;exitY=1;exitDx=0;exitDy=0;" edge="1" parent="1" source="2DD6mY1p6OVQSlKND4L3-5" target="2DD6mY1p6OVQSlKND4L3-4">
          <mxGeometry relative="1" as="geometry" />
        </mxCell>
        <mxCell id="2DD6mY1p6OVQSlKND4L3-5" value="Web" style="ellipse;whiteSpace=wrap;html=1;" vertex="1" parent="1">
          <mxGeometry x="662.5" y="510.5" width="81" height="51" as="geometry" />
        </mxCell>
        <mxCell id="2DD6mY1p6OVQSlKND4L3-12" style="edgeStyle=orthogonalEdgeStyle;rounded=0;orthogonalLoop=1;jettySize=auto;html=1;exitX=0;exitY=0.5;exitDx=0;exitDy=0;" edge="1" parent="1" source="2DD6mY1p6OVQSlKND4L3-7" target="2DD6mY1p6OVQSlKND4L3-8">
          <mxGeometry relative="1" as="geometry" />
        </mxCell>
        <mxCell id="2DD6mY1p6OVQSlKND4L3-21" style="edgeStyle=orthogonalEdgeStyle;rounded=0;orthogonalLoop=1;jettySize=auto;html=1;exitX=0.5;exitY=1;exitDx=0;exitDy=0;entryX=0.5;entryY=0;entryDx=0;entryDy=0;" edge="1" parent="1" source="2DD6mY1p6OVQSlKND4L3-7" target="2DD6mY1p6OVQSlKND4L3-19">
          <mxGeometry relative="1" as="geometry" />
        </mxCell>
        <mxCell id="2DD6mY1p6OVQSlKND4L3-7" value="DeviceServiceImpl" style="rounded=0;whiteSpace=wrap;html=1;" vertex="1" parent="1">
          <mxGeometry x="672.5" y="749.5" width="195" height="60" as="geometry" />
        </mxCell>
        <mxCell id="2DD6mY1p6OVQSlKND4L3-8" value="DeviceServiceI" style="rounded=0;whiteSpace=wrap;html=1;" vertex="1" parent="1">
          <mxGeometry x="473" y="749.5" width="103" height="60" as="geometry" />
        </mxCell>
        <mxCell id="2DD6mY1p6OVQSlKND4L3-14" value="dto" style="rounded=0;whiteSpace=wrap;html=1;" vertex="1" parent="1">
          <mxGeometry x="401" y="749.5" width="65" height="59.5" as="geometry" />
        </mxCell>
        <mxCell id="2DD6mY1p6OVQSlKND4L3-15" value="IotService" style="rounded=0;whiteSpace=wrap;html=1;" vertex="1" parent="1">
          <mxGeometry x="789" y="962" width="103" height="34" as="geometry" />
        </mxCell>
        <mxCell id="2DD6mY1p6OVQSlKND4L3-16" value="gateway" style="rounded=0;whiteSpace=wrap;html=1;" vertex="1" parent="1">
          <mxGeometry x="646" y="962" width="103" height="34" as="geometry" />
        </mxCell>
        <mxCell id="2DD6mY1p6OVQSlKND4L3-24" style="edgeStyle=orthogonalEdgeStyle;rounded=0;orthogonalLoop=1;jettySize=auto;html=1;exitX=0;exitY=1;exitDx=0;exitDy=0;entryX=0.5;entryY=0;entryDx=0;entryDy=0;" edge="1" parent="1" source="2DD6mY1p6OVQSlKND4L3-19" target="2DD6mY1p6OVQSlKND4L3-16">
          <mxGeometry relative="1" as="geometry" />
        </mxCell>
        <mxCell id="2DD6mY1p6OVQSlKND4L3-25" style="edgeStyle=orthogonalEdgeStyle;rounded=0;orthogonalLoop=1;jettySize=auto;html=1;exitX=1;exitY=1;exitDx=0;exitDy=0;entryX=0.5;entryY=0;entryDx=0;entryDy=0;" edge="1" parent="1" source="2DD6mY1p6OVQSlKND4L3-19" target="2DD6mY1p6OVQSlKND4L3-15">
          <mxGeometry relative="1" as="geometry" />
        </mxCell>
        <mxCell id="2DD6mY1p6OVQSlKND4L3-19" value="领域对象" style="ellipse;whiteSpace=wrap;html=1;" vertex="1" parent="1">
          <mxGeometry x="648" y="896" width="245" height="59" as="geometry" />
        </mxCell>
        <mxCell id="2DD6mY1p6OVQSlKND4L3-20" value="状态机" style="ellipse;whiteSpace=wrap;html=1;" vertex="1" parent="1">
          <mxGeometry x="818.5" y="912.5" width="44" height="26" as="geometry" />
        </mxCell>
      </root>
    </mxGraphModel>
  </diagram>
</mxfile>
